<svg xmlns="http://www.w3.org/2000/svg" xmlns:xlink="http://www.w3.org/1999/xlink" width="880" zoomAndPan="magnify" viewBox="0 0 660.75 717.000001" height="956" preserveAspectRatio="xMidYMid meet" version="1.0"><defs><g/></defs><g fill="#eeeeee" fill-opacity="1"><g transform="translate(133.608465, 342.082615)"><g><path d="M 12.59375 -92.09375 L 5.296875 -92.09375 L 5.296875 -98.0625 L 46.109375 -98.0625 L 46.109375 -92.09375 L 38.171875 -92.09375 C 36.304688 -92.09375 35 -91.582031 34.25 -90.5625 C 33.5 -89.550781 33.125 -88.601562 33.125 -87.71875 L 33.125 -86 L 57.375 -10.59375 L 75.796875 -66 L 70.359375 -86 C 69.390625 -89.625 67.40625 -91.65625 64.40625 -92.09375 L 58.703125 -92.09375 L 58.703125 -98.0625 L 95.015625 -98.0625 L 95.015625 -92.09375 L 88.65625 -92.09375 C 86.800781 -92.09375 85.5 -91.582031 84.75 -90.5625 C 84 -89.550781 83.625 -88.601562 83.625 -87.71875 L 83.625 -86 L 106.015625 -10.59375 L 129.46875 -86 L 129.46875 -87.59375 C 129.46875 -88.476562 129.023438 -89.382812 128.140625 -90.3125 C 127.253906 -91.238281 126.019531 -91.832031 124.4375 -92.09375 L 116.484375 -92.09375 L 116.484375 -98.0625 L 151.0625 -98.0625 L 151.0625 -92.09375 L 144.4375 -92.09375 C 142.851562 -91.832031 141.351562 -91.101562 139.9375 -89.90625 C 138.519531 -88.71875 137.59375 -87.414062 137.15625 -86 L 109.859375 0 L 96.609375 0 L 79.375 -52.875 L 61.21875 0 L 47.96875 0 L 19.875 -86 C 18.726562 -89.53125 16.300781 -91.5625 12.59375 -92.09375 Z M 12.59375 -92.09375 "/></g></g></g><g fill="#eeeeee" fill-opacity="1"><g transform="translate(288.652376, 342.082615)"><g><path d="M 35.96875 2.515625 C 27.007812 2.515625 19.4375 -0.925781 13.25 -7.8125 C 7.0625 -14.707031 3.96875 -22.96875 3.96875 -32.59375 C 3.96875 -42.226562 7.0625 -50.578125 13.25 -57.640625 C 19.4375 -64.710938 27.007812 -68.25 35.96875 -68.25 C 44.9375 -68.25 52.664062 -64.710938 59.15625 -57.640625 C 65.65625 -50.578125 68.90625 -42.226562 68.90625 -32.59375 C 68.90625 -22.96875 65.65625 -14.707031 59.15625 -7.8125 C 52.664062 -0.925781 44.9375 2.515625 35.96875 2.515625 Z M 55.796875 -32.71875 C 55.796875 -40.320312 53.695312 -46.882812 49.5 -52.40625 C 45.300781 -57.925781 40.503906 -60.6875 35.109375 -60.6875 C 29.722656 -60.6875 25.238281 -57.878906 21.65625 -52.265625 C 18.082031 -46.660156 16.296875 -40.035156 16.296875 -32.390625 C 16.296875 -24.753906 18.394531 -18.265625 22.59375 -12.921875 C 26.789062 -7.578125 31.515625 -4.90625 36.765625 -4.90625 C 42.023438 -4.90625 46.507812 -7.640625 50.21875 -13.109375 C 53.9375 -18.585938 55.796875 -25.125 55.796875 -32.71875 Z M 55.796875 -32.71875 "/></g></g></g><g fill="#eeeeee" fill-opacity="1"><g transform="translate(361.536256, 342.082615)"><g><path d="M 50.359375 -68.25 L 50.625 -68.25 C 53.09375 -68.25 55.164062 -68.160156 56.84375 -67.984375 C 55.519531 -62.859375 54.859375 -59.367188 54.859375 -57.515625 C 53.097656 -57.773438 51.023438 -57.90625 48.640625 -57.90625 C 41.660156 -57.90625 35.894531 -54.878906 31.34375 -48.828125 C 26.789062 -42.773438 24.515625 -36.75 24.515625 -30.75 L 24.515625 -9.9375 C 25.128906 -7.289062 26.71875 -5.96875 29.28125 -5.96875 L 35.640625 -5.96875 L 35.640625 0 L 2.390625 0 L 2.390625 -5.96875 L 9.40625 -6.09375 C 11.175781 -6.445312 12.546875 -7.726562 13.515625 -9.9375 L 13.515625 -53.140625 L 3.578125 -53.140625 L 3.578125 -55.796875 L 19.34375 -66.390625 L 24.515625 -66.390625 L 24.515625 -49.296875 C 29.722656 -61.929688 38.335938 -68.25 50.359375 -68.25 Z M 50.359375 -68.25 "/></g></g></g><g fill="#eeeeee" fill-opacity="1"><g transform="translate(419.710862, 342.082615)"><g><path d="M 23.59375 -9.9375 C 24.207031 -7.289062 25.351562 -5.96875 27.03125 -5.96875 L 32.734375 -5.96875 L 32.734375 0 L 3.453125 0 L 3.453125 -5.96875 L 9.8125 -6.09375 C 10.070312 -6.445312 11 -7.726562 12.59375 -9.9375 L 12.59375 -84.8125 L 2.65625 -84.8125 L 2.65625 -87.453125 L 18.421875 -98.0625 L 23.59375 -98.0625 L 23.59375 -35.375 L 50.75 -60.5625 L 42 -60.5625 L 42 -66.265625 L 69.4375 -66.265625 L 69.4375 -60.5625 L 60.03125 -60.5625 L 41.75 -43.59375 L 65.203125 -9.9375 C 66.703125 -7.289062 68.46875 -5.96875 70.5 -5.96875 L 76.59375 -5.96875 L 76.59375 0 L 45.0625 0 L 45.0625 -5.96875 L 50.890625 -6.09375 C 51.859375 -6.976562 52.125 -8.039062 51.6875 -9.28125 L 33.265625 -35.640625 L 23.59375 -26.640625 Z M 23.59375 -9.9375 "/></g></g></g><g fill="#eeeeee" fill-opacity="1"><g transform="translate(177.438494, 396.006773)"><g><path d="M 14.359375 -6.765625 C 14.359375 -4.191406 16.1875 -2.90625 19.84375 -2.90625 L 21.515625 -2.90625 L 21.515625 0 L 3.21875 0 L 3.21875 -2.90625 L 5.46875 -2.96875 C 8.78125 -3.050781 10.4375 -4.316406 10.4375 -6.765625 L 10.4375 -40.71875 C 10.4375 -42.5625 9.425781 -43.632812 7.40625 -43.9375 L 3.21875 -43.9375 L 3.21875 -46.828125 L 14.296875 -46.828125 L 34.71875 -10.5625 L 53.015625 -46.828125 L 66.21875 -46.828125 L 66.21875 -43.9375 L 61.71875 -43.9375 C 60 -43.632812 59.140625 -42.5625 59.140625 -40.71875 L 59.140625 -6.765625 C 59.140625 -4.191406 60.941406 -2.90625 64.546875 -2.90625 L 66.21875 -2.90625 L 66.21875 0 L 45.734375 0 L 45.734375 -2.90625 L 48 -2.96875 C 51.300781 -3.050781 52.953125 -4.316406 52.953125 -6.765625 L 52.953125 -38.78125 L 33.890625 -1.421875 L 14.359375 -35.625 Z M 14.359375 -6.765625 "/></g></g></g><g fill="#eeeeee" fill-opacity="1"><g transform="translate(257.760218, 396.006773)"><g><path d="M 31.953125 -2.1875 C 28.171875 -0.0820312 24.09375 0.96875 19.71875 0.96875 C 19.625 0.96875 19.535156 0.96875 19.453125 0.96875 C 14.253906 0.96875 10.160156 -0.53125 7.171875 -3.53125 C 4.191406 -6.539062 2.703125 -10.707031 2.703125 -16.03125 C 2.703125 -21.363281 4.164062 -25.445312 7.09375 -28.28125 C 10.3125 -31.332031 14.378906 -32.859375 19.296875 -32.859375 C 24.210938 -32.859375 27.816406 -31.3125 30.109375 -28.21875 C 32.410156 -25.125 33.5625 -21.210938 33.5625 -16.484375 L 33.5625 -14.953125 L 8.828125 -14.953125 C 9.085938 -11.597656 10.222656 -8.695312 12.234375 -6.25 C 14.390625 -3.757812 17.398438 -2.515625 21.265625 -2.515625 C 25.128906 -2.515625 28.78125 -3.78125 32.21875 -6.3125 Z M 28.28125 -18.296875 C 28.15625 -25.335938 25.28125 -28.859375 19.65625 -28.859375 L 19.515625 -28.859375 C 13.378906 -28.859375 9.816406 -25.335938 8.828125 -18.296875 Z M 28.28125 -18.296875 "/></g></g></g><g fill="#eeeeee" fill-opacity="1"><g transform="translate(304.781633, 396.006773)"><g><path d="M 29.703125 -27.125 C 31.671875 -30.988281 34.660156 -32.921875 38.671875 -32.921875 C 42.691406 -32.921875 45.710938 -31.675781 47.734375 -29.1875 C 49.753906 -26.695312 50.765625 -23.625 50.765625 -19.96875 L 50.765625 -4.828125 C 51.066406 -3.546875 51.835938 -2.90625 53.078125 -2.90625 L 55.53125 -2.90625 L 55.53125 0 L 40.65625 0 L 40.65625 -2.90625 L 43.421875 -2.96875 L 43.484375 -2.96875 C 44.003906 -2.96875 44.648438 -3.585938 45.421875 -4.828125 L 45.421875 -19.96875 C 45.421875 -22.457031 44.867188 -24.644531 43.765625 -26.53125 C 42.671875 -28.425781 41.050781 -29.375 38.90625 -29.375 C 36.757812 -29.375 34.957031 -28.6875 33.5 -27.3125 C 32.039062 -25.9375 31.3125 -24.304688 31.3125 -22.421875 L 31.3125 -4.828125 C 31.613281 -3.546875 32.382812 -2.90625 33.625 -2.90625 L 36.078125 -2.90625 L 36.078125 0 L 21.1875 0 L 21.1875 -2.90625 L 23.96875 -2.96875 L 24.03125 -2.96875 C 24.539062 -2.96875 25.1875 -3.585938 25.96875 -4.828125 L 25.96875 -19.96875 C 25.96875 -22.457031 25.441406 -24.644531 24.390625 -26.53125 C 23.335938 -28.425781 21.722656 -29.375 19.546875 -29.375 C 17.378906 -29.375 15.554688 -28.6875 14.078125 -27.3125 C 12.597656 -25.9375 11.859375 -24.304688 11.859375 -22.421875 L 11.859375 -4.828125 C 12.148438 -3.546875 12.921875 -2.90625 14.171875 -2.90625 L 16.625 -2.90625 L 16.625 0 L 1.734375 0 L 1.734375 -2.90625 L 4.515625 -2.96875 C 5.367188 -3.132812 6.03125 -3.753906 6.5 -4.828125 L 6.5 -27.0625 L 1.671875 -27.0625 L 1.671875 -28.34375 L 9.34375 -33.5 L 11.859375 -33.5 L 11.859375 -28.921875 C 13.921875 -31.546875 16.320312 -32.878906 19.0625 -32.921875 L 19.265625 -32.921875 C 24.160156 -32.921875 27.640625 -30.988281 29.703125 -27.125 Z M 29.703125 -27.125 "/></g></g></g><g fill="#eeeeee" fill-opacity="1"><g transform="translate(372.478873, 396.006773)"><g><path d="M 17.484375 1.21875 C 13.128906 1.21875 9.445312 -0.453125 6.4375 -3.796875 C 3.4375 -7.148438 1.9375 -11.164062 1.9375 -15.84375 C 1.9375 -20.53125 3.4375 -24.585938 6.4375 -28.015625 C 9.445312 -31.453125 13.128906 -33.171875 17.484375 -33.171875 C 21.847656 -33.171875 25.609375 -31.453125 28.765625 -28.015625 C 31.921875 -24.585938 33.5 -20.53125 33.5 -15.84375 C 33.5 -11.164062 31.921875 -7.148438 28.765625 -3.796875 C 25.609375 -0.453125 21.847656 1.21875 17.484375 1.21875 Z M 27.125 -15.90625 C 27.125 -19.601562 26.101562 -22.789062 24.0625 -25.46875 C 22.019531 -28.15625 19.6875 -29.5 17.0625 -29.5 C 14.445312 -29.5 12.269531 -28.132812 10.53125 -25.40625 C 8.789062 -22.6875 7.921875 -19.46875 7.921875 -15.75 C 7.921875 -12.03125 8.941406 -8.875 10.984375 -6.28125 C 13.023438 -3.6875 15.320312 -2.390625 17.875 -2.390625 C 20.425781 -2.390625 22.601562 -3.71875 24.40625 -6.375 C 26.21875 -9.039062 27.125 -12.21875 27.125 -15.90625 Z M 27.125 -15.90625 "/></g></g></g><g fill="#eeeeee" fill-opacity="1"><g transform="translate(418.791768, 396.006773)"><g><path d="M 24.484375 -33.171875 L 24.609375 -33.171875 C 25.804688 -33.171875 26.816406 -33.128906 27.640625 -33.046875 C 26.992188 -30.554688 26.671875 -28.859375 26.671875 -27.953125 C 25.804688 -28.085938 24.796875 -28.15625 23.640625 -28.15625 C 20.242188 -28.15625 17.441406 -26.679688 15.234375 -23.734375 C 13.023438 -20.796875 11.921875 -17.867188 11.921875 -14.953125 L 11.921875 -4.828125 C 12.222656 -3.546875 12.992188 -2.90625 14.234375 -2.90625 L 17.328125 -2.90625 L 17.328125 0 L 1.15625 0 L 1.15625 -2.90625 L 4.578125 -2.96875 C 5.429688 -3.132812 6.097656 -3.753906 6.578125 -4.828125 L 6.578125 -25.828125 L 1.734375 -25.828125 L 1.734375 -27.125 L 9.40625 -32.28125 L 11.921875 -32.28125 L 11.921875 -23.96875 C 14.453125 -30.101562 18.640625 -33.171875 24.484375 -33.171875 Z M 24.484375 -33.171875 "/></g></g></g><g fill="#eeeeee" fill-opacity="1"><g transform="translate(457.955076, 396.006773)"><g><path d="M 12.375 -27.640625 C 12.375 -27.378906 12.394531 -26.992188 12.4375 -26.484375 L 21.96875 -6.703125 L 30.59375 -26.484375 L 30.59375 -27.25 C 30.59375 -27.632812 30.550781 -28.050781 30.46875 -28.5 C 30.382812 -28.957031 29.957031 -29.25 29.1875 -29.375 L 29.1875 -29.4375 L 26.28125 -29.4375 L 26.28125 -32.34375 L 39.234375 -32.34375 L 39.234375 -29.4375 L 36.984375 -29.4375 C 36.890625 -29.351562 36.507812 -29.03125 35.84375 -28.46875 C 35.1875 -27.914062 34.707031 -27.253906 34.40625 -26.484375 C 25.507812 -6.421875 20.632812 4.425781 19.78125 6.0625 C 17.582031 10.175781 13.863281 12.234375 8.625 12.234375 L 4.375 12.234375 L 4.375 8.25 C 7.164062 8.5 8.671875 8.691406 8.890625 8.828125 C 13.015625 8.828125 15.914062 7.066406 17.59375 3.546875 C 18.488281 1.648438 18.9375 0.601562 18.9375 0.40625 C 18.9375 0.21875 18.914062 0.0820312 18.875 0 L 5.46875 -27.765625 C 4.914062 -28.796875 4.273438 -29.351562 3.546875 -29.4375 L 0.96875 -29.4375 L 0.96875 -32.34375 L 16.625 -32.34375 L 16.625 -29.4375 L 13.921875 -29.4375 L 13.921875 -29.375 C 12.890625 -29.332031 12.375 -28.753906 12.375 -27.640625 Z M 12.375 -27.640625 "/></g></g></g><g fill="#eeeeee" fill-opacity="1"><g transform="translate(509.415901, 396.006773)"><g/></g></g><g fill="#eeeeee" fill-opacity="1"><g transform="translate(243.183064, 442.104001)"><g><path d="M 36.78125 -46.703125 C 37 -46.617188 37.160156 -46.578125 37.265625 -46.578125 C 37.367188 -46.578125 37.421875 -46.660156 37.421875 -46.828125 C 37.421875 -47.003906 37.296875 -47.285156 37.046875 -47.671875 L 40.453125 -47.671875 L 47.03125 -38.140625 L 45.09375 -36.65625 L 43.671875 -38.390625 L 40.96875 -40.84375 C 38.945312 -42.6875 36.882812 -43.800781 34.78125 -44.1875 C 32.675781 -44.570312 30.722656 -44.765625 28.921875 -44.765625 C 27.117188 -44.765625 25.378906 -44.492188 23.703125 -43.953125 C 22.023438 -43.421875 20.359375 -42.578125 18.703125 -41.421875 C 17.054688 -40.265625 15.554688 -38.910156 14.203125 -37.359375 C 12.847656 -35.816406 11.765625 -33.992188 10.953125 -31.890625 C 10.140625 -29.785156 9.734375 -27.613281 9.734375 -25.375 C 9.734375 -19.019531 11.375 -13.75 14.65625 -9.5625 C 17.9375 -5.375 22.15625 -3.28125 27.3125 -3.28125 C 32.46875 -3.28125 36.140625 -4.179688 38.328125 -5.984375 L 38.328125 -16.625 C 37.941406 -18.8125 36.929688 -19.90625 35.296875 -19.90625 L 31.1875 -19.90625 L 31.1875 -22.875 L 49.859375 -22.875 L 49.859375 -19.90625 L 45.9375 -19.90625 C 44.300781 -19.90625 43.484375 -18.8125 43.484375 -16.625 L 43.484375 -5.09375 C 42.285156 -3.757812 41.101562 -2.769531 39.9375 -2.125 C 38.78125 -1.476562 37.253906 -0.851562 35.359375 -0.25 C 33.472656 0.34375 30.640625 0.640625 26.859375 0.640625 C 23.078125 0.640625 19.78125 0.03125 16.96875 -1.1875 C 14.15625 -2.414062 11.738281 -4.164062 9.71875 -6.4375 C 7.707031 -8.71875 6.066406 -11.53125 4.796875 -14.875 C 3.535156 -18.226562 2.90625 -21.472656 2.90625 -24.609375 C 2.90625 -32.597656 6.425781 -39.101562 13.46875 -44.125 C 17.332031 -46.875 21.539062 -48.25 26.09375 -48.25 C 30.644531 -48.25 34.207031 -47.734375 36.78125 -46.703125 Z M 36.78125 -46.703125 "/></g></g></g><g fill="#eeeeee" fill-opacity="1"><g transform="translate(304.954523, 442.104001)"><g><path d="M 34.078125 -3.421875 C 33.390625 -0.578125 31.894531 0.84375 29.59375 0.84375 C 27.300781 0.84375 25.679688 -0.679688 24.734375 -3.734375 C 22.367188 -0.640625 19.664062 0.90625 16.625 0.90625 C 12.925781 0.90625 9.765625 -0.00390625 7.140625 -1.828125 C 4.523438 -3.660156 3.21875 -5.953125 3.21875 -8.703125 L 3.21875 -8.890625 C 3.21875 -13.703125 5.925781 -17.375 11.34375 -19.90625 C 14.34375 -21.320312 16.722656 -22.03125 18.484375 -22.03125 C 20.242188 -22.03125 22.328125 -21.515625 24.734375 -20.484375 L 24.796875 -23.328125 C 24.796875 -25.679688 24.410156 -27.25 23.640625 -28.03125 C 21.960938 -29.570312 19.75 -30.34375 17 -30.34375 C 14.257812 -30.34375 10.414062 -28.796875 5.46875 -25.703125 L 5.34375 -30.734375 C 9.46875 -32.796875 13.675781 -33.828125 17.96875 -33.828125 L 18.296875 -33.828125 C 20.910156 -33.828125 23.53125 -32.878906 26.15625 -30.984375 C 27.53125 -29.992188 28.632812 -28.679688 29.46875 -27.046875 C 30.3125 -25.421875 30.734375 -23.597656 30.734375 -21.578125 L 30.734375 -4.25 C 30.984375 -3.945312 31.304688 -3.796875 31.703125 -3.796875 C 31.785156 -3.796875 32.578125 -4.632812 34.078125 -6.3125 Z M 24.734375 -15.390625 C 24.390625 -17.328125 22.820312 -18.296875 20.03125 -18.296875 L 19.65625 -18.296875 C 17.5 -18.296875 15.28125 -17.328125 13 -15.390625 C 10.726562 -13.460938 9.59375 -11.40625 9.59375 -9.21875 C 9.59375 -8.914062 9.613281 -8.613281 9.65625 -8.3125 C 10.09375 -4.789062 12.476562 -3.03125 16.8125 -3.03125 C 19.039062 -3.03125 20.691406 -3.566406 21.765625 -4.640625 C 22.847656 -5.710938 23.535156 -6.613281 23.828125 -7.34375 C 24.128906 -8.070312 24.351562 -8.992188 24.5 -10.109375 C 24.65625 -11.234375 24.734375 -11.960938 24.734375 -12.296875 Z M 24.734375 -15.390625 "/></g></g></g><g fill="#eeeeee" fill-opacity="1"><g transform="translate(351.847113, 442.104001)"><g><path d="M 29.703125 -27.125 C 31.671875 -30.988281 34.660156 -32.921875 38.671875 -32.921875 C 42.691406 -32.921875 45.710938 -31.675781 47.734375 -29.1875 C 49.753906 -26.695312 50.765625 -23.625 50.765625 -19.96875 L 50.765625 -4.828125 C 51.066406 -3.546875 51.835938 -2.90625 53.078125 -2.90625 L 55.53125 -2.90625 L 55.53125 0 L 40.65625 0 L 40.65625 -2.90625 L 43.421875 -2.96875 L 43.484375 -2.96875 C 44.003906 -2.96875 44.648438 -3.585938 45.421875 -4.828125 L 45.421875 -19.96875 C 45.421875 -22.457031 44.867188 -24.644531 43.765625 -26.53125 C 42.671875 -28.425781 41.050781 -29.375 38.90625 -29.375 C 36.757812 -29.375 34.957031 -28.6875 33.5 -27.3125 C 32.039062 -25.9375 31.3125 -24.304688 31.3125 -22.421875 L 31.3125 -4.828125 C 31.613281 -3.546875 32.382812 -2.90625 33.625 -2.90625 L 36.078125 -2.90625 L 36.078125 0 L 21.1875 0 L 21.1875 -2.90625 L 23.96875 -2.96875 L 24.03125 -2.96875 C 24.539062 -2.96875 25.1875 -3.585938 25.96875 -4.828125 L 25.96875 -19.96875 C 25.96875 -22.457031 25.441406 -24.644531 24.390625 -26.53125 C 23.335938 -28.425781 21.722656 -29.375 19.546875 -29.375 C 17.378906 -29.375 15.554688 -28.6875 14.078125 -27.3125 C 12.597656 -25.9375 11.859375 -24.304688 11.859375 -22.421875 L 11.859375 -4.828125 C 12.148438 -3.546875 12.921875 -2.90625 14.171875 -2.90625 L 16.625 -2.90625 L 16.625 0 L 1.734375 0 L 1.734375 -2.90625 L 4.515625 -2.96875 C 5.367188 -3.132812 6.03125 -3.753906 6.5 -4.828125 L 6.5 -27.0625 L 1.671875 -27.0625 L 1.671875 -28.34375 L 9.34375 -33.5 L 11.859375 -33.5 L 11.859375 -28.921875 C 13.921875 -31.546875 16.320312 -32.878906 19.0625 -32.921875 L 19.265625 -32.921875 C 24.160156 -32.921875 27.640625 -30.988281 29.703125 -27.125 Z M 29.703125 -27.125 "/></g></g></g><g fill="#eeeeee" fill-opacity="1"><g transform="translate(419.544354, 442.104001)"><g><path d="M 31.953125 -2.1875 C 28.171875 -0.0820312 24.09375 0.96875 19.71875 0.96875 C 19.625 0.96875 19.535156 0.96875 19.453125 0.96875 C 14.253906 0.96875 10.160156 -0.53125 7.171875 -3.53125 C 4.191406 -6.539062 2.703125 -10.707031 2.703125 -16.03125 C 2.703125 -21.363281 4.164062 -25.445312 7.09375 -28.28125 C 10.3125 -31.332031 14.378906 -32.859375 19.296875 -32.859375 C 24.210938 -32.859375 27.816406 -31.3125 30.109375 -28.21875 C 32.410156 -25.125 33.5625 -21.210938 33.5625 -16.484375 L 33.5625 -14.953125 L 8.828125 -14.953125 C 9.085938 -11.597656 10.222656 -8.695312 12.234375 -6.25 C 14.390625 -3.757812 17.398438 -2.515625 21.265625 -2.515625 C 25.128906 -2.515625 28.78125 -3.78125 32.21875 -6.3125 Z M 28.28125 -18.296875 C 28.15625 -25.335938 25.28125 -28.859375 19.65625 -28.859375 L 19.515625 -28.859375 C 13.378906 -28.859375 9.816406 -25.335938 8.828125 -18.296875 Z M 28.28125 -18.296875 "/></g></g></g><g fill="#eeeeee" fill-opacity="1"><g transform="translate(354.878146, 488.201229)"><g/></g></g></svg>