<svg xmlns="http://www.w3.org/2000/svg" xmlns:xlink="http://www.w3.org/1999/xlink" width="880" zoomAndPan="magnify" viewBox="0 0 660 717.000001" height="956" preserveAspectRatio="xMidYMid meet" version="1.0"><defs><g/><clipPath id="de73a8184f"><path d="M 0.460938 0 L 659.539062 0 L 659.539062 715.1875 L 0.460938 715.1875 Z M 0.460938 0 " clip-rule="nonzero"/></clipPath></defs><g clip-path="url(#de73a8184f)"><path fill="#ffffff" d="M 0.460938 0 L 659.539062 0 L 659.539062 715.1875 L 0.460938 715.1875 Z M 0.460938 0 " fill-opacity="1" fill-rule="nonzero"/><path fill="#f3d668" d="M 0.460938 0 L 659.539062 0 L 659.539062 715.1875 L 0.460938 715.1875 Z M 0.460938 0 " fill-opacity="1" fill-rule="nonzero"/></g><g fill="#000000" fill-opacity="1"><g transform="translate(208.928904, 389.723518)"><g><path d="M 9.046875 -93.984375 C 11.484375 -96.421875 14.390625 -97.640625 17.765625 -97.640625 C 21.140625 -97.640625 24.039062 -96.421875 26.46875 -93.984375 C 28.894531 -91.554688 30.109375 -88.65625 30.109375 -85.28125 C 30.109375 -81.914062 28.894531 -79.015625 26.46875 -76.578125 C 24.039062 -74.148438 21.140625 -72.9375 17.765625 -72.9375 C 14.390625 -72.9375 11.484375 -74.148438 9.046875 -76.578125 C 6.617188 -79.015625 5.40625 -81.914062 5.40625 -85.28125 C 5.40625 -88.65625 6.617188 -91.554688 9.046875 -93.984375 Z M 7.0625 -60.34375 L 7.0625 0 L 27.875 0 L 27.875 -60.34375 Z M 7.0625 -60.34375 "/></g></g></g><g fill="#000000" fill-opacity="1"><g transform="translate(244.454299, 389.723518)"><g><path d="M 29.171875 -97.046875 L 29.171875 -19.40625 L 62.578125 -19.40625 L 62.578125 0 L 7.0625 0 L 7.0625 -97.046875 Z M 29.171875 -97.046875 "/></g></g></g><g fill="#000000" fill-opacity="1"><g transform="translate(310.91736, 389.723518)"><g><path d="M 9.046875 -93.984375 C 11.484375 -96.421875 14.390625 -97.640625 17.765625 -97.640625 C 21.140625 -97.640625 24.039062 -96.421875 26.46875 -93.984375 C 28.894531 -91.554688 30.109375 -88.65625 30.109375 -85.28125 C 30.109375 -81.914062 28.894531 -79.015625 26.46875 -76.578125 C 24.039062 -74.148438 21.140625 -72.9375 17.765625 -72.9375 C 14.390625 -72.9375 11.484375 -74.148438 9.046875 -76.578125 C 6.617188 -79.015625 5.40625 -81.914062 5.40625 -85.28125 C 5.40625 -88.65625 6.617188 -91.554688 9.046875 -93.984375 Z M 7.0625 -60.34375 L 7.0625 0 L 27.875 0 L 27.875 -60.34375 Z M 7.0625 -60.34375 "/></g></g></g><g fill="#000000" fill-opacity="1"><g transform="translate(346.442756, 389.723518)"><g><path d="M 33.296875 -62.109375 C 36.742188 -62.109375 40.148438 -61.71875 43.515625 -60.9375 C 46.890625 -60.15625 49.40625 -59.367188 51.0625 -58.578125 L 53.53125 -57.40625 L 46.703125 -43.765625 C 41.992188 -46.273438 37.523438 -47.53125 33.296875 -47.53125 C 30.941406 -47.53125 29.273438 -47.273438 28.296875 -46.765625 C 27.316406 -46.253906 26.828125 -45.289062 26.828125 -43.875 C 26.828125 -43.5625 26.863281 -43.25 26.9375 -42.9375 C 27.019531 -42.625 27.175781 -42.328125 27.40625 -42.046875 C 27.644531 -41.773438 27.859375 -41.539062 28.046875 -41.34375 C 28.242188 -41.15625 28.578125 -40.941406 29.046875 -40.703125 C 29.523438 -40.460938 29.898438 -40.285156 30.171875 -40.171875 C 30.453125 -40.054688 30.90625 -39.878906 31.53125 -39.640625 C 32.15625 -39.410156 32.625 -39.234375 32.9375 -39.109375 C 33.25 -38.992188 33.773438 -38.816406 34.515625 -38.578125 C 35.265625 -38.347656 35.835938 -38.191406 36.234375 -38.109375 C 38.660156 -37.410156 40.773438 -36.628906 42.578125 -35.765625 C 44.390625 -34.898438 46.296875 -33.722656 48.296875 -32.234375 C 50.296875 -30.742188 51.84375 -28.859375 52.9375 -26.578125 C 54.03125 -24.304688 54.578125 -21.722656 54.578125 -18.828125 C 54.578125 -5.097656 45.050781 1.765625 26 1.765625 C 21.6875 1.765625 17.585938 1.097656 13.703125 -0.234375 C 9.816406 -1.566406 7.015625 -2.898438 5.296875 -4.234375 L 2.703125 -6.359375 L 11.171875 -20.59375 C 11.796875 -20.039062 12.617188 -19.390625 13.640625 -18.640625 C 14.660156 -17.898438 16.503906 -16.878906 19.171875 -15.578125 C 21.835938 -14.285156 24.148438 -13.640625 26.109375 -13.640625 C 30.429688 -13.640625 32.59375 -15.09375 32.59375 -18 C 32.59375 -19.332031 32.039062 -20.367188 30.9375 -21.109375 C 29.84375 -21.859375 27.976562 -22.703125 25.34375 -23.640625 C 22.71875 -24.585938 20.660156 -25.453125 19.171875 -26.234375 C 15.410156 -28.191406 12.429688 -30.40625 10.234375 -32.875 C 8.035156 -35.351562 6.9375 -38.628906 6.9375 -42.703125 C 6.9375 -48.816406 9.304688 -53.578125 14.046875 -56.984375 C 18.796875 -60.398438 25.210938 -62.109375 33.296875 -62.109375 Z M 33.296875 -62.109375 "/></g></g></g><g fill="#000000" fill-opacity="1"><g transform="translate(404.318555, 389.723518)"><g><path d="M 10.59375 -60.34375 L 10.59375 -82.8125 L 31.40625 -82.8125 L 31.40625 -60.34375 L 44.109375 -60.34375 L 44.109375 -44.46875 L 31.40625 -44.46875 L 31.40625 -25.296875 C 31.40625 -19.722656 32.972656 -16.9375 36.109375 -16.9375 C 36.898438 -16.9375 37.722656 -17.09375 38.578125 -17.40625 C 39.441406 -17.71875 40.113281 -18.035156 40.59375 -18.359375 L 41.296875 -18.828125 L 46.46875 -2 C 42 0.507812 36.898438 1.765625 31.171875 1.765625 C 27.253906 1.765625 23.882812 1.078125 21.0625 -0.296875 C 18.238281 -1.671875 16.097656 -3.515625 14.640625 -5.828125 C 13.191406 -8.140625 12.15625 -10.566406 11.53125 -13.109375 C 10.90625 -15.660156 10.59375 -18.390625 10.59375 -21.296875 L 10.59375 -44.46875 L 1.875 -44.46875 L 1.875 -60.34375 Z M 10.59375 -60.34375 "/></g></g></g></svg>